<?xml version="1.0" standalone="no"?>
<svg xmlns:xlink="http://www.w3.org/1999/xlink" id="logo1" xmlns="http://www.w3.org/2000/svg" viewBox="0 0 350 150">
                        <line x1="10" y1="60" x2="30" y2="60" stroke="#000" stroke-width="2"/>
                        <line x1="10" y1="90" x2="30" y2="90" stroke="#000" stroke-width="2"/>
                        <line x1="30" y1="60" x2="30" y2="75" stroke="#000" stroke-width="2"/>
                        <line x1="30" y1="75" x2="40" y2="75" stroke="#000" stroke-width="2"/>
                        <line x1="30" y1="90" x2="30" y2="75" stroke="#000" stroke-width="2"/>
                        <rect x="40" y="45" width="200" height="60" fill="none" stroke="#000" stroke-width="4" rx="4"/>
                        <rect x="240" y="60" width="20" height="30" fill="none" stroke="#000" stroke-width="4"/>
                        <line x1="65" y1="75" x2="85" y2="75" stroke="#000" stroke-width="4" stroke-linecap="round"/>
                        <line x1="75" y1="65" x2="75" y2="85" stroke="#000" stroke-width="4" stroke-linecap="round"/>
                        <text x="140" y="85" font-family="Arial, sans-serif" font-size="36" font-weight="bold" text-anchor="middle" fill="#000">AA</text>
                        <line x1="205" y1="75" x2="225" y2="75" stroke="#000" stroke-width="4" stroke-linecap="round"/>
                        <line x1="260" y1="60" x2="280" y2="60" stroke="#000" stroke-width="2"/>
                        <line x1="260" y1="90" x2="280" y2="90" stroke="#000" stroke-width="2"/>
                        <line x1="280" y1="60" x2="280" y2="75" stroke="#000" stroke-width="2"/>
                        <line x1="280" y1="75" x2="310" y2="75" stroke="#000" stroke-width="2"/>
                        <line x1="280" y1="90" x2="280" y2="75" stroke="#000" stroke-width="2"/>
                        <line x1="310" y1="75" x2="340" y2="75" stroke="#000" stroke-width="2"/>
                        <circle cx="30" cy="75" r="3" fill="#000"/>
                        <circle cx="280" cy="75" r="3" fill="#000"/>
                    </svg>