<?xml version="1.0" standalone="no"?>
<svg xmlns:xlink="http://www.w3.org/1999/xlink" id="logo6" xmlns="http://www.w3.org/2000/svg" viewBox="0 0 350 150">
                        <path d="M 5 60 L 25 60 L 25 75 L 35 75" stroke="#000" stroke-width="2" fill="none"/>
                        <path d="M 5 90 L 25 90 L 25 75" stroke="#000" stroke-width="2" fill="none"/>
                        <line x1="25" y1="55" x2="25" y2="60" stroke="#000" stroke-width="2"/>
                        <line x1="25" y1="90" x2="25" y2="95" stroke="#000" stroke-width="2"/>
                        <rect x="35" y="50" width="210" height="50" fill="none" stroke="#000" stroke-width="4" rx="4"/>
                        <rect x="245" y="65" width="18" height="20" fill="none" stroke="#000" stroke-width="3"/>
                        <line x1="58" y1="75" x2="73" y2="75" stroke="#000" stroke-width="3" stroke-linecap="round"/>
                        <line x1="65.5" y1="67.5" x2="65.5" y2="82.5" stroke="#000" stroke-width="3" stroke-linecap="round"/>
                        <text x="145" y="83" font-family="Arial, sans-serif" font-size="34" font-weight="bold" text-anchor="middle" fill="#000">AA</text>
                        <line x1="217" y1="75" x2="232" y2="75" stroke="#000" stroke-width="3" stroke-linecap="round"/>
                        <path d="M 263 75 L 275 75 L 275 60 L 285 60" stroke="#000" stroke-width="2" fill="none"/>
                        <path d="M 275 75 L 275 90 L 285 90" stroke="#000" stroke-width="2" fill="none"/>
                        <line x1="285" y1="60" x2="345" y2="60" stroke="#000" stroke-width="2"/>
                        <line x1="285" y1="90" x2="345" y2="90" stroke="#000" stroke-width="2"/>
                        <rect x="295" y="56" width="8" height="8" fill="none" stroke="#000" stroke-width="1.5"/>
                        <rect x="295" y="86" width="8" height="8" fill="none" stroke="#000" stroke-width="1.5"/>
                        <circle cx="10" cy="60" r="3" fill="#000"/>
                        <circle cx="10" cy="90" r="3" fill="#000"/>
                        <circle cx="25" cy="75" r="3" fill="#000"/>
                        <circle cx="275" cy="75" r="3" fill="#000"/>
                    </svg>